<?xml version="1.0" encoding="UTF-8" standalone="no"?>
<!-- Created with Inkscape (http://www.inkscape.org/) -->

<svg
   xmlns:dc="http://purl.org/dc/elements/1.1/"
   xmlns:cc="http://creativecommons.org/ns#"
   xmlns:rdf="http://www.w3.org/1999/02/22-rdf-syntax-ns#"
   xmlns:svg="http://www.w3.org/2000/svg"
   xmlns="http://www.w3.org/2000/svg"
   xmlns:sodipodi="http://sodipodi.sourceforge.net/DTD/sodipodi-0.dtd"
   xmlns:inkscape="http://www.inkscape.org/namespaces/inkscape"
   width="50mm"
   height="46.838165mm"
   viewBox="0 0 50 46.838165"
   version="1.1"
   id="svg6342"
   inkscape:version="0.91+devel r"
   sodipodi:docname="ludo.svg">
  <defs
     id="defs6336" />
  <sodipodi:namedview
     id="base"
     pagecolor="#ffffff"
     bordercolor="#666666"
     borderopacity="1.0"
     inkscape:pageopacity="0.0"
     inkscape:pageshadow="2"
     inkscape:zoom="0.35"
     inkscape:cx="-412.15327"
     inkscape:cy="-100.54873"
     inkscape:document-units="mm"
     inkscape:current-layer="layer1"
     showgrid="false"
     fit-margin-top="0"
     fit-margin-left="0"
     fit-margin-right="0"
     fit-margin-bottom="0"
     inkscape:window-width="1855"
     inkscape:window-height="1056"
     inkscape:window-x="65"
     inkscape:window-y="24"
     inkscape:window-maximized="1" />
  <metadata
     id="metadata6339">
    <rdf:RDF>
      <cc:Work
         rdf:about="">
        <dc:format>image/svg+xml</dc:format>
        <dc:type
           rdf:resource="http://purl.org/dc/dcmitype/StillImage" />
        <dc:title></dc:title>
      </cc:Work>
    </rdf:RDF>
  </metadata>
  <g
     inkscape:label="Layer 1"
     inkscape:groupmode="layer"
     id="layer1"
     transform="translate(-81.078649,-82.573198)">
    <g
       id="g7888"
       transform="matrix(0.44610433,0,0,-0.44610433,-330.16102,233.37339)">
      <g
         transform="matrix(0.45811577,-0.26144481,0.26144481,0.45811577,468.39731,431.3228)"
         id="g7857">
        <path
           inkscape:connector-curvature="0"
           id="path2434"
           style="fill:#ececec;fill-rule:evenodd;stroke:#5c3566;stroke-width:2.25000024;stroke-linecap:round;stroke-linejoin:round;stroke-miterlimit:4;stroke-dasharray:none"
           d="m 933.14195,289.85939 56.69021,-20.84111 -69.86105,-27.66639 -51.34774,28.83301 z" />
        <path
           inkscape:connector-curvature="0"
           id="path2420"
           style="fill:#b3b3b3;fill-rule:evenodd;stroke:#5c3566;stroke-width:2.25000024;stroke-linecap:round;stroke-linejoin:round;stroke-miterlimit:4;stroke-dasharray:none"
           d="m 868.7433,270.10313 51.95831,-28.90934 4.09408,-78.68159 -48.36576,38.43312 z" />
        <path
           inkscape:connector-curvature="0"
           id="path2404"
           style="fill:#888a85;fill-rule:evenodd;stroke:#5c3566;stroke-width:2.25000024;stroke-linecap:round;stroke-linejoin:round;stroke-miterlimit:4;stroke-dasharray:none"
           d="m 989.85942,269.00193 -69.88831,-27.43743 4.75371,-79.03594 60.74068,34.0283 z" />
        <path
           inkscape:connector-curvature="0"
           id="path2396"
           style="fill:#5c3566;stroke:none;stroke-width:2.25;stroke-linecap:round;stroke-linejoin:round;stroke-miterlimit:4;stroke-dasharray:none"
           d="m 947.05553,225.39902 c -2.76152,-5.73737 -7.95273,-8.96821 -11.59262,-7.21625 -3.6448,1.75432 -4.35799,7.82707 -1.59646,13.56444 2.76152,5.73738 7.95272,8.96821 11.59753,7.21389 3.63989,-1.75196 4.35307,-7.82471 1.59155,-13.56208 z" />
        <path
           inkscape:connector-curvature="0"
           id="path2398"
           style="fill:#5c3566;stroke:none;stroke-width:2.25;stroke-linecap:round;stroke-linejoin:round;stroke-miterlimit:4;stroke-dasharray:none"
           d="m 979.98263,239.12101 c -2.76152,-5.73737 -7.95273,-8.96821 -11.59262,-7.21625 -3.6448,1.75432 -4.35799,7.82707 -1.59646,13.56444 2.76152,5.73738 7.95272,8.96821 11.59753,7.21389 3.63989,-1.75196 4.35307,-7.82471 1.59155,-13.56208 z" />
        <path
           inkscape:connector-curvature="0"
           id="path2400"
           style="fill:#5c3566;stroke:none;stroke-width:2.25;stroke-linecap:round;stroke-linejoin:round;stroke-miterlimit:4;stroke-dasharray:none"
           d="m 979.25213,201.43257 c -2.76152,-5.73737 -7.95273,-8.96821 -11.59262,-7.21625 -3.6448,1.75432 -4.35799,7.82707 -1.59646,13.56444 2.76152,5.73738 7.95272,8.96821 11.59753,7.21389 3.63989,-1.75196 4.35307,-7.82471 1.59155,-13.56208 z" />
        <path
           inkscape:connector-curvature="0"
           id="path2402"
           style="fill:#5c3566;stroke:none;stroke-width:2.25;stroke-linecap:round;stroke-linejoin:round;stroke-miterlimit:4;stroke-dasharray:none"
           d="m 947.42078,186.43057 c -2.76152,-5.73737 -7.95273,-8.96821 -11.59262,-7.21625 -3.6448,1.75432 -4.35799,7.82707 -1.59646,13.56444 2.76152,5.73738 7.95272,8.96821 11.59753,7.21389 3.63989,-1.75196 4.35307,-7.82471 1.59155,-13.56208 z" />
        <path
           inkscape:connector-curvature="0"
           id="path2408"
           style="fill:#5c3566;stroke:none;stroke-width:2.25000024;stroke-linecap:round;stroke-linejoin:round;stroke-miterlimit:4;stroke-dasharray:none"
           d="m 901.62265,229.43475 c 2.79769,-5.45129 7.18635,-8.19468 9.8006,-6.12771 2.61777,2.06975 2.46976,8.16603 -0.32793,13.61732 -2.79769,5.45129 -7.18635,8.19468 -9.80412,6.12492 -2.61425,-2.06696 -2.46624,-8.16324 0.33145,-13.61453 z" />
        <path
           inkscape:connector-curvature="0"
           id="path2410"
           style="fill:#5c3566;stroke:none;stroke-width:2.25000024;stroke-linecap:round;stroke-linejoin:round;stroke-miterlimit:4;stroke-dasharray:none"
           d="m 903.15998,205.62747 c 2.79769,-5.45129 7.18635,-8.19468 9.8006,-6.12771 2.61777,2.06975 2.46976,8.16603 -0.32793,13.61732 -2.79769,5.45129 -7.18635,8.19468 -9.80412,6.12492 -2.61425,-2.06696 -2.46624,-8.16324 0.33145,-13.61453 z" />
        <path
           inkscape:connector-curvature="0"
           id="path2412"
           style="fill:#5c3566;stroke:none;stroke-width:2.25000024;stroke-linecap:round;stroke-linejoin:round;stroke-miterlimit:4;stroke-dasharray:none"
           d="m 904.62098,182.93427 c 2.79769,-5.45129 7.18635,-8.19468 9.8006,-6.12771 2.61777,2.06975 2.46976,8.16603 -0.32793,13.61732 -2.79769,5.45129 -7.18635,8.19468 -9.80412,6.12492 -2.61425,-2.06696 -2.46624,-8.16324 0.33145,-13.61453 z" />
        <path
           inkscape:connector-curvature="0"
           id="path2414"
           style="fill:#5c3566;stroke:none;stroke-width:2.25;stroke-linecap:round;stroke-linejoin:round;stroke-miterlimit:4;stroke-dasharray:none"
           d="m 876.3115,244.61424 c 2.57624,-5.16788 6.61749,-7.76863 9.02479,-5.80912 2.41055,1.96216 2.27425,7.7415 -0.30198,12.90938 -2.57624,5.16787 -6.61749,7.76863 -9.02804,5.80647 -2.4073,-1.95951 -2.271,-7.73886 0.30523,-12.90673 z" />
        <path
           inkscape:connector-curvature="0"
           id="path2416"
           style="fill:#5c3566;stroke:none;stroke-width:2.25;stroke-linecap:round;stroke-linejoin:round;stroke-miterlimit:4;stroke-dasharray:none"
           d="m 879.50439,222.37961 c 2.35471,-5.26237 6.04848,-7.91067 8.24879,-5.91533 2.20328,1.99804 2.07871,7.88306 -0.276,13.14542 -2.35472,5.26237 -6.04849,7.91068 -8.25177,5.91264 -2.20031,-1.99534 -2.07573,-7.88036 0.27898,-13.14273 z" />
        <path
           inkscape:connector-curvature="0"
           id="path2418"
           style="fill:#5c3566;stroke:none;stroke-width:2.25;stroke-linecap:round;stroke-linejoin:round;stroke-miterlimit:4;stroke-dasharray:none"
           d="m 882.30459,202.02875 c 2.20706,-4.50656 5.66922,-6.77453 7.73158,-5.06579 2.06514,1.71104 1.9484,6.75081 -0.25865,11.25737 -2.20706,4.50656 -5.66922,6.77453 -7.73436,5.06348 -2.06236,-1.70873 -1.94562,-6.7485 0.26143,-11.25506 z" />
        <path
           inkscape:connector-curvature="0"
           id="path2422"
           style="fill:#5c3566;stroke:none;stroke-width:2.25;stroke-linecap:round;stroke-linejoin:round;stroke-miterlimit:4;stroke-dasharray:none"
           d="m 900.40446,265.99623 c 5.34884,0.8035 8.77796,3.45799 7.65888,5.92762 -1.12059,2.47297 -6.36501,3.82453 -11.71385,3.02104 -5.34883,-0.8035 -8.77795,-3.458 -7.65736,-5.93096 1.11908,-2.46963 6.3635,-3.8212 11.71233,-3.0177 z" />
        <path
           inkscape:connector-curvature="0"
           id="path2424"
           style="fill:#5c3566;stroke:none;stroke-width:2.25;stroke-linecap:round;stroke-linejoin:round;stroke-miterlimit:4;stroke-dasharray:none"
           d="m 932.67549,276.21472 c 5.05212,0.70977 8.29099,3.05464 7.23395,5.23621 -1.05846,2.18451 -6.01197,3.37844 -11.06409,2.66867 -5.05212,-0.70977 -8.29099,-3.05464 -7.23253,-5.23915 1.05703,-2.18157 6.01055,-3.37549 11.06267,-2.66573 z" />
        <path
           inkscape:connector-curvature="0"
           id="path2426"
           style="fill:#5c3566;stroke:none;stroke-width:2.25000024;stroke-linecap:round;stroke-linejoin:round;stroke-miterlimit:4;stroke-dasharray:none"
           d="m 961.6234,273.66904 c 5.64555,-0.77224 9.2649,-3.32351 8.08373,-5.69711 -1.18277,-2.37682 -6.71812,-3.67585 -12.36368,-2.90362 -5.64555,0.77223 -9.26489,3.3235 -8.08213,5.70032 1.18117,2.37361 6.71652,3.67264 12.36208,2.90041 z" />
        <path
           inkscape:connector-curvature="0"
           id="path2428"
           style="fill:#5c3566;stroke:none;stroke-width:2.25;stroke-linecap:round;stroke-linejoin:round;stroke-miterlimit:4;stroke-dasharray:none"
           d="m 929.86539,264.69461 c 6.23899,0.77224 10.23877,3.32351 8.93342,5.69711 -1.30711,2.37682 -7.42433,3.67585 -13.66332,2.90362 -6.23899,-0.77223 -10.23877,-3.3235 -8.93166,-5.70032 1.30534,-2.37361 7.42256,-3.67264 13.66156,-2.90041 z" />
        <path
           inkscape:connector-curvature="0"
           id="path2430"
           style="fill:#5c3566;stroke:none;stroke-width:2.25;stroke-linecap:round;stroke-linejoin:round;stroke-miterlimit:4;stroke-dasharray:none"
           d="m 927.52897,251.96427 c 6.43676,0.83469 10.56334,3.59237 9.21663,6.15802 -1.34853,2.56911 -7.65965,3.97326 -14.09642,3.13856 -6.43676,-0.8347 -10.56334,-3.59237 -9.21481,-6.16148 1.34671,-2.56565 7.65783,-3.9698 14.0946,-3.1351 z" />
      </g>
      <g
         transform="translate(-15.9099,-53.03301)"
         id="g7659">
        <path
           d="m 1006.7794,340.08668 c -6.3955,-3.94289 -10.52612,-10.23216 -10.52612,-17.31364 0,-11.92784 11.74472,-21.60062 26.22972,-21.60062 14.4849,0 26.2297,9.67217 26.2297,21.60062 0,7.04761 -4.1086,13.31148 -10.4503,17.25377 4.2985,-3.10376 6.9794,-7.45642 6.9794,-12.28343 0,-9.42302 -10.1893,-17.06509 -22.7588,-17.06509 -12.5696,0 -22.75884,7.64146 -22.75884,17.06509 0,4.85882 2.70764,9.23313 7.05524,12.34027 z"
           inkscape:connector-curvature="0"
           style="fill:#cc0000;stroke:#a40000;stroke-width:2.25;stroke-miterlimit:4;stroke-dasharray:none"
           id="path4024-2" />
        <ellipse
           transform="scale(1,-1)"
           style="fill:#ef2929;stroke:#a40000;stroke-width:2.25;stroke-miterlimit:4;stroke-dasharray:none"
           id="path4026-5"
           cx="1022.4694"
           cy="-327.6106"
           rx="23.118408"
           ry="17.193617" />
        <path
           inkscape:connector-curvature="0"
           style="fill:#cc0000;stroke:#a40000;stroke-width:2.25;stroke-miterlimit:4;stroke-dasharray:none"
           sodipodi:nodetypes="cccccc"
           d="m 1019.2209,375.68758 c 0.5057,-20.01379 -11.9936,-29.87706 -12.1381,-48.37901 2.3843,-6.04737 8.7455,-10.43716 15.2539,-10.43716 6.3027,0.0902 15.5057,4.9869 16.0774,8.69854 2.1049,18.38342 -9.098,29.68838 -6.1637,49.49414 -8.4335,4.35707 -4.2484,3.80773 -13.0295,0.62361 z"
           id="path4102" />
        <ellipse
           transform="scale(1,-1)"
           style="fill:#ef2929;stroke:#a40000;stroke-width:2.25;stroke-miterlimit:4;stroke-dasharray:none"
           id="path4028"
           cx="1025.9482"
           cy="-377.41925"
           rx="12.571537"
           ry="12.526706" />
      </g>
      <g
         transform="rotate(13.494334,1237.7074,337.71837)"
         id="g7665">
        <path
           id="path7647"
           style="fill:#3465a4;stroke:#204a87;stroke-width:2.25;stroke-miterlimit:4;stroke-dasharray:none"
           inkscape:connector-curvature="0"
           d="m 943.13979,337.96536 c -6.3955,-3.94289 -10.52612,-10.23216 -10.52612,-17.31364 0,-11.92784 11.74472,-21.60062 26.22972,-21.60062 14.4849,0 26.2297,9.67217 26.2297,21.60062 0,7.04761 -4.1086,13.31148 -10.4503,17.25377 4.2985,-3.10376 6.9794,-7.45642 6.9794,-12.28343 0,-9.42302 -10.1893,-17.06509 -22.7588,-17.06509 -12.5696,0 -22.75884,7.64146 -22.75884,17.06509 0,4.85882 2.70764,9.23313 7.05524,12.34027 z" />
        <ellipse
           ry="17.193617"
           rx="23.118408"
           cy="-325.48929"
           cx="958.82983"
           id="ellipse7649"
           style="fill:#729fcf;stroke:#204a87;stroke-width:2.25;stroke-miterlimit:4;stroke-dasharray:none"
           transform="scale(1,-1)" />
        <path
           id="path7651"
           d="m 955.58129,373.56626 c 0.5057,-20.01379 -11.9936,-29.87706 -12.1381,-48.37901 2.3843,-6.04737 8.7455,-10.43716 15.2539,-10.43716 6.3027,0.0902 15.5057,4.9869 16.0774,8.69854 2.1049,18.38342 -9.098,29.68838 -6.1637,49.49414 -8.4335,4.35707 -4.2484,3.80773 -13.0295,0.62361 z"
           sodipodi:nodetypes="cccccc"
           style="fill:#3465a4;stroke:#204a87;stroke-width:2.25;stroke-miterlimit:4;stroke-dasharray:none"
           inkscape:connector-curvature="0" />
        <ellipse
           ry="12.526706"
           rx="12.571537"
           cy="-375.29794"
           cx="962.30865"
           id="ellipse7653"
           style="fill:#729fcf;stroke:#204a87;stroke-width:2.25;stroke-miterlimit:4;stroke-dasharray:none"
           transform="scale(1,-1)" />
      </g>
    </g>
  </g>
</svg>
